{"title":"The losers 2010 DVDrip English Klam","uid":6470535,"size":1576831496,"categoryP":"video","categoryS":"movies","magnet":"?xt=urn:btih:66ea36f1cc9576bbc471d4a837a98d39e28cbd1e&amp;dn=The+losers+2010+DVDrip+English+Klam&amp;tr=udp%3A%2F%2Ftracker.openbittorrent.com%3A80&amp;tr=udp%3A%2F%2Fopen.demonii.com%3A1337&amp;tr=udp%3A%2F%2Ftracker.coppersurfer.tk%3A6969&amp;tr=udp%3A%2F%2Fexodus.desync.com%3A6969","seeders":0,"leechers":0,"uploader":"Klambake","files":-1,"time":1308128644,"description":"With: Jeffrey Dean Morgan, Chris Evans and Zoe Saldana\n\nDe leden van een CIA Black Operation team zijn in de Boliviaanse jungle op een 'search and destroy'-missie. Het team wordt echter verraden en voor dood achtergelaten. Ze besluiten achter de verantwoordelijken aan te gaan...\n\nAfter being betrayed and left for dead, members of a CIA black ops team root out those who targeted them for assassination. \n\n------------------ Dutch Friends ------------------\n\nYou can find my Friends at: http://www.Film-Test.nl \n                    \n------ They got my dutchs subs ---- and more ------\n\nGeneral:\n\nComplete name                    : The Losers\\The Losers.avi\nFormat                           : AVI\nFormat/Info                      : Audio Video Interleave\nFile size                        : 1.47 GiB\nDuration                         : 1h 33mn\nOverall bit rate                 : 2 259 Kbps\n\nVideo:\n\nFormat                           : MPEG-4 Visual\nFormat profile                   : Simple@L3\nFormat settings, BVOP            : No\nFormat settings, QPel            : No\nFormat settings, GMC             : No warppoints\nFormat settings, Matrix          : Default (H.263)\nCodec ID                         : XVID\nCodec ID/Hint                    : XviD\nDuration                         : 1h 33mn\nBit rate                         : 1 864 Kbps\nWidth                            : 720 pixels\nHeight                           : 304 pixels\nDisplay aspect ratio             : 2.35:1\nFrame rate                       : 25.000 fps\nColor space                      : YUV\nChroma subsampling               : 4:2:0\nBit depth                        : 8 bits\nScan type                        : Progressive\nBits/(Pixel*Frame)               : 0.341\nStream size                      : 1.21 GiB (83%)\nWriting library                  : XviD 1.1.2 (UTC 2006-11-01)\n\nAudio:\n\nFormat                           : AC-3\nFormat/Info                      : Audio Coding 3\nMode extension                   : CM (complete main)\nCodec ID                         : 2000\nDuration                         : 1h 33mn\nBit rate mode                    : Constant\nBit rate                         : 384 Kbps\nChannel(s)                       : 6 channels\nChannel positions                : Front: L C R, Side: L R, LFE\nSampling rate                    : 48.0 KHz\nBit depth                        : 16 bits\nStream size                      : 255 MiB (17%)\nAlignment                        : Aligned on interleaves\nInterleave, duration             : 32 ms (0.80 video frame)\nInterleave, preload duration     : 608 ms\n\n\n\n","torrent":{"xt":"urn:btih:66ea36f1cc9576bbc471d4a837a98d39e28cbd1e","amp;dn":"The+losers+2010+DVDrip+English+Klam","amp;tr":["udp%3A%2F%2Ftracker.openbittorrent.com%3A80","udp%3A%2F%2Fopen.demonii.com%3A1337","udp%3A%2F%2Ftracker.coppersurfer.tk%3A6969","udp%3A%2F%2Fexodus.desync.com%3A6969"],"infoHash":"66ea36f1cc9576bbc471d4a837a98d39e28cbd1e","infoHashBuffer":{"type":"Buffer","data":[102,234,54,241,204,149,118,187,196,113,212,168,55,169,141,57,226,140,189,30]},"announce":[],"urlList":[]}}